<?xml version="1.0" standalone="no"?>
<!DOCTYPE svg PUBLIC "-//W3C//DTD SVG 20010904//EN"
 "http://www.w3.org/TR/2001/REC-SVG-20010904/DTD/svg10.dtd">
<svg version="1.0" xmlns="http://www.w3.org/2000/svg"
 width="225.000000pt" height="225.000000pt" viewBox="0 0 225.000000 225.000000"
 preserveAspectRatio="xMidYMid meet">
<metadata>
Created by potrace 1.11, written by Peter Selinger 2001-2013
</metadata>
<g transform="translate(0.000000,225.000000) scale(0.100000,-0.100000)"
fill="#000000" stroke="none">
<path d="M998 2235 c-2 -2 -24 -6 -49 -9 -24 -2 -44 -5 -44 -6 0 -1 -8 -3 -18
-5 -133 -25 -377 -141 -438 -207 -9 -10 -20 -18 -24 -18 -14 0 -184 -180 -190
-201 -4 -10 -10 -19 -15 -19 -5 0 -12 -9 -15 -20 -3 -11 -12 -26 -18 -32 -13
-14 -75 -139 -101 -203 -41 -102 -70 -271 -68 -400 0 -42 12 -168 17 -185 1
-3 5 -23 9 -45 9 -45 40 -138 67 -203 10 -23 19 -46 20 -50 1 -4 10 -19 20
-34 10 -14 19 -29 19 -33 0 -30 242 -305 269 -305 5 0 11 -4 13 -9 5 -14 138
-96 203 -125 33 -15 68 -31 77 -36 10 -6 22 -10 27 -10 5 0 22 -5 38 -12 15
-6 31 -11 34 -10 4 1 21 -3 39 -8 68 -19 119 -24 255 -25 150 0 202 5 278 28
26 8 47 13 47 11 0 -2 20 5 45 16 25 11 48 19 50 19 8 0 159 74 165 80 3 3 31
24 63 45 134 90 280 262 355 419 108 223 141 483 91 707 -6 25 -12 54 -15 64
-20 100 -141 350 -176 364 -4 2 -8 9 -8 16 0 14 -161 182 -200 209 -130 91
-202 130 -300 166 -19 7 -44 17 -55 22 -11 5 -32 11 -47 13 -15 3 -32 7 -37
10 -23 14 -370 34 -383 21z m252 -309 c25 -4 61 -11 80 -16 19 -5 38 -9 43
-10 4 0 21 -7 37 -15 17 -9 30 -12 30 -8 0 5 4 4 8 -2 4 -5 32 -22 62 -37 93
-46 217 -156 281 -249 46 -68 99 -175 101 -206 2 -13 5 -23 9 -23 4 0 10 -21
14 -47 5 -27 10 -55 12 -63 2 -8 4 -64 4 -125 1 -241 -109 -473 -292 -616 -24
-19 -49 -39 -56 -46 -7 -6 -26 -17 -43 -25 -16 -7 -30 -16 -30 -20 0 -5 -5 -8
-10 -8 -6 0 -30 -9 -53 -20 -155 -75 -392 -85 -575 -24 -62 21 -202 94 -202
105 0 5 -4 9 -10 9 -53 0 -280 291 -280 359 0 10 -4 21 -8 26 -10 11 -28 71
-38 125 -10 56 -12 209 -2 259 5 25 10 55 12 66 7 33 35 111 59 162 57 122
154 234 274 320 33 24 193 104 193 97 0 -2 12 1 28 7 33 13 53 17 112 25 24 3
46 6 47 8 5 5 149 -1 193 -8z"/>
<path d="M1021 1238 l-371 -371 103 -103 c58 -57 108 -104 113 -104 5 0 174
165 376 368 l368 367 -109 107 -109 108 -371 -372z"/>
</g>
</svg>
